<svg width="41" height="42" viewBox="0 0 41 42" fill="none" xmlns="http://www.w3.org/2000/svg">
<g filter="url(#filter0_d_65_1596)">
<path d="M35.9641 4.78076C35.234 3.48561 34.1856 2.40965 32.9237 1.66027C31.6609 0.910236 30.2274 0.516108 28.7683 0.517828H12.1555V0.540365C11.0643 0.538455 9.98344 0.758033 8.97519 1.18646C7.96695 1.61489 7.0512 2.24372 6.28065 3.03676C5.77383 3.55862 5.33392 4.14468 4.97155 4.78076C4.2366 6.07487 3.849 7.5458 3.84827 9.04369V26.0937C3.8476 27.2134 4.06203 28.3223 4.4793 29.3569C4.89656 30.3916 5.50847 31.3316 6.28002 32.1233C7.05158 32.915 7.96764 33.5428 8.97581 33.9709C9.98399 34.3989 11.0645 34.6187 12.1555 34.6178H29.3646C31.357 34.4731 33.2312 33.5939 34.6415 32.1422C35.161 31.6093 35.6097 31.0083 35.976 30.3549C36.6982 29.0648 37.0768 27.6024 37.0739 26.1145V9.04369C37.0763 7.5472 36.6935 6.07661 35.9641 4.78076ZM10.8701 4.75302H30.0521C30.2169 4.74674 30.3812 4.77463 30.5352 4.83501C30.6892 4.89538 30.8298 4.98702 30.9485 5.10443C31.0672 5.22184 31.1617 5.36262 31.2262 5.51834C31.2907 5.67407 31.3239 5.84154 31.3239 6.01075C31.3239 6.17997 31.2907 6.34744 31.2262 6.50317C31.1617 6.65889 31.0672 6.79967 30.9485 6.91708C30.8298 7.03449 30.6892 7.12612 30.5352 7.1865C30.3812 7.24688 30.2169 7.27476 30.0521 7.26848H10.8701C10.7053 7.27476 10.541 7.24688 10.387 7.1865C10.233 7.12612 10.0924 7.03449 9.97367 6.91708C9.85494 6.79967 9.7605 6.65889 9.696 6.50317C9.63149 6.34744 9.59825 6.17997 9.59825 6.01075C9.59825 5.84154 9.63149 5.67407 9.696 5.51834C9.7605 5.36262 9.85494 5.22184 9.97367 5.10443C10.0924 4.98702 10.233 4.89538 10.387 4.83501C10.541 4.77463 10.7053 4.74674 10.8701 4.75302ZM10.8701 10.0752H30.0521C30.2169 10.0689 30.3812 10.0968 30.5352 10.1572C30.6892 10.2176 30.8298 10.3092 30.9485 10.4266C31.0672 10.544 31.1617 10.6848 31.2262 10.8405C31.2907 10.9962 31.3239 11.1637 31.3239 11.3329C31.3239 11.5021 31.2907 11.6696 31.2262 11.8253C31.1617 11.9811 31.0672 12.1218 30.9485 12.2392C30.8298 12.3567 30.6892 12.4483 30.5352 12.5087C30.3812 12.569 30.2169 12.5969 30.0521 12.5906H10.8701C10.7053 12.5969 10.541 12.569 10.387 12.5087C10.233 12.4483 10.0924 12.3567 9.97367 12.2392C9.85494 12.1218 9.7605 11.9811 9.696 11.8253C9.63149 11.6696 9.59825 11.5021 9.59825 11.3329C9.59825 11.1637 9.63149 10.9962 9.696 10.8405C9.7605 10.6848 9.85494 10.544 9.97367 10.4266C10.0924 10.3092 10.233 10.2176 10.387 10.1572C10.541 10.0968 10.7053 10.0689 10.8701 10.0752ZM10.8701 17.9128C10.7053 17.9191 10.541 17.8912 10.387 17.8308C10.233 17.7705 10.0924 17.6788 9.97367 17.5614C9.85494 17.444 9.7605 17.3032 9.696 17.1475C9.63149 16.9918 9.59825 16.8243 9.59825 16.6551C9.59825 16.4859 9.63149 16.3184 9.696 16.1627C9.7605 16.0069 9.85494 15.8662 9.97367 15.7488C10.0924 15.6313 10.233 15.5397 10.387 15.4793C10.541 15.419 10.7053 15.3911 10.8701 15.3974H18.9476C19.1124 15.3911 19.2767 15.419 19.4307 15.4793C19.5847 15.5397 19.7253 15.6313 19.844 15.7488C19.9627 15.8662 20.0572 16.0069 20.1217 16.1627C20.1862 16.3184 20.2194 16.4859 20.2194 16.6551C20.2194 16.8243 20.1862 16.9918 20.1217 17.1475C20.0572 17.3032 19.9627 17.444 19.844 17.5614C19.7253 17.6788 19.5847 17.7705 19.4307 17.8308C19.2767 17.8912 19.1124 17.9191 18.9476 17.9128H10.8701ZM30.4727 24.9131H26.6518V28.8311C26.6364 29.3845 26.4114 29.9099 26.0246 30.2958C25.6377 30.6816 25.1195 30.8975 24.5801 30.8975C24.0406 30.8975 23.5225 30.6816 23.1356 30.2958C22.7488 29.9099 22.5237 29.3845 22.5083 28.8311V24.9131H18.6942C18.155 24.8973 17.643 24.6664 17.2671 24.2693C16.8911 23.8723 16.6808 23.3405 16.6808 22.7868C16.6808 22.2332 16.8911 21.7014 17.2671 21.3044C17.643 20.9073 18.155 20.6764 18.6942 20.6606H22.5117V16.7426C22.5271 16.1892 22.7521 15.6638 23.139 15.2779C23.5258 14.8921 24.044 14.6762 24.5835 14.6762C25.1229 14.6762 25.6411 14.8921 26.0279 15.2779C26.4148 15.6638 26.6398 16.1892 26.6552 16.7426V20.6606H30.4727C31.0119 20.6764 31.5239 20.9073 31.8999 21.3044C32.2758 21.7014 32.4861 22.2332 32.4861 22.7868C32.4861 23.3405 32.2758 23.8723 31.8999 24.2693C31.5239 24.6664 31.0119 24.8973 30.4727 24.9131Z" fill="white"/>
</g>
<defs>
<filter id="filter0_d_65_1596" x="0.350831" y="0.517822" width="40.2205" height="41.0948" filterUnits="userSpaceOnUse" color-interpolation-filters="sRGB">
<feFlood flood-opacity="0" result="BackgroundImageFix"/>
<feColorMatrix in="SourceAlpha" type="matrix" values="0 0 0 0 0 0 0 0 0 0 0 0 0 0 0 0 0 0 127 0" result="hardAlpha"/>
<feOffset dy="3.49744"/>
<feGaussianBlur stdDeviation="1.74872"/>
<feComposite in2="hardAlpha" operator="out"/>
<feColorMatrix type="matrix" values="0 0 0 0 0 0 0 0 0 0 0 0 0 0 0 0 0 0 0.25 0"/>
<feBlend mode="normal" in2="BackgroundImageFix" result="effect1_dropShadow_65_1596"/>
<feBlend mode="normal" in="SourceGraphic" in2="effect1_dropShadow_65_1596" result="shape"/>
</filter>
</defs>
</svg>
