<svg width="23" height="23" viewBox="0 0 23 23" fill="none" xmlns="http://www.w3.org/2000/svg">
<g filter="url(#filter0_d_65_1159)">
<path d="M7.02913 16.129C6.43312 16.725 5.4668 16.725 4.87079 16.129C4.27479 15.533 4.27479 14.5667 4.87079 13.9707L9.34163 9.49987L4.87643 5.06568C4.27792 4.47133 4.27624 3.5038 4.87267 2.90736C5.46764 2.3124 6.43228 2.3124 7.02725 2.90736L11.5 7.38008L15.936 2.913C16.5293 2.31553 17.4952 2.31385 18.0906 2.90924C18.686 3.50464 18.6843 4.47049 18.0868 5.06381L13.6198 9.49987L18.0925 13.9726C18.6874 14.5676 18.6874 15.5322 18.0925 16.1272C17.496 16.7236 16.5285 16.7219 15.9341 16.1234L11.5 11.6582L7.02913 16.129Z" fill="#1C1B1F"/>
</g>
<defs>
<filter id="filter0_d_65_1159" x="0.423828" y="0.461182" width="22.1149" height="22.1147" filterUnits="userSpaceOnUse" color-interpolation-filters="sRGB">
<feFlood flood-opacity="0" result="BackgroundImageFix"/>
<feColorMatrix in="SourceAlpha" type="matrix" values="0 0 0 0 0 0 0 0 0 0 0 0 0 0 0 0 0 0 127 0" result="hardAlpha"/>
<feOffset dy="2"/>
<feGaussianBlur stdDeviation="2"/>
<feComposite in2="hardAlpha" operator="out"/>
<feColorMatrix type="matrix" values="0 0 0 0 0 0 0 0 0 0 0 0 0 0 0 0 0 0 0.25 0"/>
<feBlend mode="normal" in2="BackgroundImageFix" result="effect1_dropShadow_65_1159"/>
<feBlend mode="normal" in="SourceGraphic" in2="effect1_dropShadow_65_1159" result="shape"/>
</filter>
</defs>
</svg>
