<svg width="43" height="43" viewBox="0 0 43 43" fill="none" xmlns="http://www.w3.org/2000/svg">
<g filter="url(#filter0_d_65_1716)">
<rect x="3" y="2" width="37" height="37" rx="18.5" fill="#D2E898"/>
</g>
<mask id="mask0_65_1716" style="mask-type:alpha" maskUnits="userSpaceOnUse" x="10" y="10" width="22" height="22">
<rect x="10" y="10" width="22" height="22" fill="#D9D9D9"/>
</mask>
<g mask="url(#mask0_65_1716)">
<path d="M21 24.6666C22.1458 24.6666 23.1198 24.2656 23.9218 23.4635C24.7239 22.6614 25.125 21.6875 25.125 20.5416C25.125 19.3958 24.7239 18.4218 23.9218 17.6198C23.1198 16.8177 22.1458 16.4166 21 16.4166C19.8541 16.4166 18.8802 16.8177 18.0781 17.6198C17.276 18.4218 16.875 19.3958 16.875 20.5416C16.875 21.6875 17.276 22.6614 18.0781 23.4635C18.8802 24.2656 19.8541 24.6666 21 24.6666ZM21 23.0166C20.3125 23.0166 19.7281 22.776 19.2468 22.2948C18.7656 21.8135 18.525 21.2291 18.525 20.5416C18.525 19.8541 18.7656 19.2698 19.2468 18.7885C19.7281 18.3073 20.3125 18.0666 21 18.0666C21.6875 18.0666 22.2718 18.3073 22.7531 18.7885C23.2343 19.2698 23.475 19.8541 23.475 20.5416C23.475 21.2291 23.2343 21.8135 22.7531 22.2948C22.2718 22.776 21.6875 23.0166 21 23.0166ZM21 27.4166C18.7694 27.4166 16.7375 26.7941 14.9041 25.5489C13.0708 24.3038 11.7416 22.6347 10.9166 20.5416C11.7416 18.4486 13.0708 16.7795 14.9041 15.5343C16.7375 14.2892 18.7694 13.6666 21 13.6666C23.2305 13.6666 25.2625 14.2892 27.0958 15.5343C28.9291 16.7795 30.2583 18.4486 31.0833 20.5416C30.2583 22.6347 28.9291 24.3038 27.0958 25.5489C25.2625 26.7941 23.2305 27.4166 21 27.4166Z" fill="#184159"/>
</g>
<defs>
<filter id="filter0_d_65_1716" x="0" y="0" width="43" height="43" filterUnits="userSpaceOnUse" color-interpolation-filters="sRGB">
<feFlood flood-opacity="0" result="BackgroundImageFix"/>
<feColorMatrix in="SourceAlpha" type="matrix" values="0 0 0 0 0 0 0 0 0 0 0 0 0 0 0 0 0 0 127 0" result="hardAlpha"/>
<feOffset dy="1"/>
<feGaussianBlur stdDeviation="1.5"/>
<feComposite in2="hardAlpha" operator="out"/>
<feColorMatrix type="matrix" values="0 0 0 0 0 0 0 0 0 0 0 0 0 0 0 0 0 0 0.25 0"/>
<feBlend mode="normal" in2="BackgroundImageFix" result="effect1_dropShadow_65_1716"/>
<feBlend mode="normal" in="SourceGraphic" in2="effect1_dropShadow_65_1716" result="shape"/>
</filter>
</defs>
</svg>
