<svg width="41" height="42" viewBox="0 0 41 42" fill="none" xmlns="http://www.w3.org/2000/svg">
<g filter="url(#filter0_d_65_1593)">
<path d="M20.3662 0.517822C15.9603 0.518282 11.735 2.31476 8.61963 5.51216C5.50422 8.70955 3.75381 13.046 3.75336 17.5678C3.75381 22.0896 5.50422 26.4261 8.61963 29.6235C11.735 32.8209 15.9603 34.6174 20.3662 34.6178C24.772 34.6174 28.9973 32.8209 32.1127 29.6235C35.2281 26.4261 36.9785 22.0896 36.979 17.5678C36.9785 13.046 35.2281 8.70955 32.1127 5.51216C28.9973 2.31476 24.772 0.518282 20.3662 0.517822ZM27.2469 15.0612L20.9425 18.6346L20.8749 18.6676H20.8597C20.6393 18.7753 20.3905 18.8057 20.1515 18.7543H20.1211L20.0298 18.73H20.0028C19.9484 18.7111 19.8954 18.6885 19.8439 18.6624L19.8101 18.645C19.7846 18.6313 19.7598 18.6163 19.7357 18.5999L19.6986 18.5757C19.6528 18.5423 19.6087 18.5064 19.5667 18.4681L19.5464 18.4473C19.5295 18.4317 19.5126 18.4126 19.4957 18.3935C19.4788 18.3744 19.4636 18.3571 19.4484 18.3363C19.4332 18.3155 19.4231 18.3051 19.4112 18.2877C19.3845 18.2507 19.3602 18.2119 19.3385 18.1715C19.3385 18.1593 19.3267 18.1455 19.32 18.1333L19.2895 18.0691C19.2895 18.0553 19.2794 18.0396 19.2726 18.024C19.2635 18.002 19.2556 17.9794 19.249 17.9564C19.249 17.9408 19.249 17.9252 19.2354 17.9095C19.2219 17.8939 19.2236 17.8645 19.2185 17.8419C19.2113 17.8028 19.2051 17.7634 19.1999 17.7239V17.6771C19.1999 17.6598 19.1999 17.6407 19.1999 17.6216L18.796 5.4061C18.7857 5.08406 18.9004 4.771 19.115 4.5358C19.3296 4.3006 19.6265 4.16252 19.9403 4.15194C20.254 4.14136 20.5591 4.25914 20.7882 4.47938C21.0174 4.69962 21.1519 5.00426 21.1623 5.32631L21.4868 15.5469L26.0993 12.9328C26.3743 12.7766 26.6985 12.7389 27.0006 12.8281C27.3026 12.9172 27.5578 13.1259 27.71 13.4081C27.8622 13.6903 27.8989 14.0231 27.8121 14.3331C27.7252 14.6431 27.5219 14.905 27.2469 15.0612Z" fill="white"/>
</g>
<defs>
<filter id="filter0_d_65_1593" x="0.255921" y="0.517822" width="40.2205" height="41.0948" filterUnits="userSpaceOnUse" color-interpolation-filters="sRGB">
<feFlood flood-opacity="0" result="BackgroundImageFix"/>
<feColorMatrix in="SourceAlpha" type="matrix" values="0 0 0 0 0 0 0 0 0 0 0 0 0 0 0 0 0 0 127 0" result="hardAlpha"/>
<feOffset dy="3.49744"/>
<feGaussianBlur stdDeviation="1.74872"/>
<feComposite in2="hardAlpha" operator="out"/>
<feColorMatrix type="matrix" values="0 0 0 0 0 0 0 0 0 0 0 0 0 0 0 0 0 0 0.25 0"/>
<feBlend mode="normal" in2="BackgroundImageFix" result="effect1_dropShadow_65_1593"/>
<feBlend mode="normal" in="SourceGraphic" in2="effect1_dropShadow_65_1593" result="shape"/>
</filter>
</defs>
</svg>
