<svg width="43" height="43" viewBox="0 0 43 43" fill="none" xmlns="http://www.w3.org/2000/svg">
<g filter="url(#filter0_d_65_1377)">
<rect x="3" y="2" width="37" height="37" rx="18.5" fill="#D2E898"/>
</g>
<mask id="mask0_65_1377" style="mask-type:alpha" maskUnits="userSpaceOnUse" x="9" y="9" width="24" height="24">
<rect x="9" y="9" width="24" height="24" fill="#D9D9D9"/>
</mask>
<g mask="url(#mask0_65_1377)">
<path d="M20 26H16C14.6167 26 13.4375 25.5125 12.4625 24.5375C11.4875 23.5625 11 22.3833 11 21C11 19.6167 11.4875 18.4375 12.4625 17.4625C13.4375 16.4875 14.6167 16 16 16H20V18H16C15.1667 18 14.4583 18.2917 13.875 18.875C13.2917 19.4583 13 20.1667 13 21C13 21.8333 13.2917 22.5417 13.875 23.125C14.4583 23.7083 15.1667 24 16 24H20V26ZM17 22V20H25V22H17ZM22 26V24H26C26.8333 24 27.5417 23.7083 28.125 23.125C28.7083 22.5417 29 21.8333 29 21C29 20.1667 28.7083 19.4583 28.125 18.875C27.5417 18.2917 26.8333 18 26 18H22V16H26C27.3833 16 28.5625 16.4875 29.5375 17.4625C30.5125 18.4375 31 19.6167 31 21C31 22.3833 30.5125 23.5625 29.5375 24.5375C28.5625 25.5125 27.3833 26 26 26H22Z" fill="#184159"/>
</g>
<defs>
<filter id="filter0_d_65_1377" x="0" y="0" width="43" height="43" filterUnits="userSpaceOnUse" color-interpolation-filters="sRGB">
<feFlood flood-opacity="0" result="BackgroundImageFix"/>
<feColorMatrix in="SourceAlpha" type="matrix" values="0 0 0 0 0 0 0 0 0 0 0 0 0 0 0 0 0 0 127 0" result="hardAlpha"/>
<feOffset dy="1"/>
<feGaussianBlur stdDeviation="1.5"/>
<feComposite in2="hardAlpha" operator="out"/>
<feColorMatrix type="matrix" values="0 0 0 0 0 0 0 0 0 0 0 0 0 0 0 0 0 0 0.25 0"/>
<feBlend mode="normal" in2="BackgroundImageFix" result="effect1_dropShadow_65_1377"/>
<feBlend mode="normal" in="SourceGraphic" in2="effect1_dropShadow_65_1377" result="shape"/>
</filter>
</defs>
</svg>
