<svg width="16" height="16" viewBox="0 0 16 16" fill="none" xmlns="http://www.w3.org/2000/svg">
<path d="M0 16V12.5797C0 12.0485 0.211328 11.5391 0.587367 11.1639L11.2 0.575C11.4 0.391667 11.6208 0.25 11.8625 0.15C12.1042 0.05 12.3583 0 12.625 0C12.8917 0 13.15 0.05 13.4 0.15C13.65 0.25 13.8667 0.4 14.05 0.6L15.425 2C15.625 2.18333 15.7708 2.4 15.8625 2.65C15.9542 2.9 16 3.15 16 3.4C16 3.66667 15.9542 3.92083 15.8625 4.1625C15.7708 4.40417 15.625 4.625 15.425 4.825L4.83579 15.4142C4.46071 15.7893 3.95201 16 3.42157 16H0ZM10.8 5.2C11.1866 5.5866 11.8134 5.5866 12.2 5.2L13.3 4.1C13.6866 3.7134 13.6866 3.0866 13.3 2.7C12.9134 2.3134 12.2866 2.3134 11.9 2.7L10.8 3.8C10.4134 4.1866 10.4134 4.8134 10.8 5.2Z" fill="#184159"/>
</svg>
