<svg width="43" height="43" viewBox="0 0 43 43" fill="none" xmlns="http://www.w3.org/2000/svg">
<g filter="url(#filter0_d_65_1793)">
<rect x="3" y="2" width="37" height="37" rx="18.5" fill="#D2E898"/>
</g>
<path d="M14 28V24.5797C14 24.0485 14.2113 23.5391 14.5874 23.1639L25.2 12.575C25.4 12.3917 25.6208 12.25 25.8625 12.15C26.1042 12.05 26.3583 12 26.625 12C26.8917 12 27.15 12.05 27.4 12.15C27.65 12.25 27.8667 12.4 28.05 12.6L29.425 14C29.625 14.1833 29.7708 14.4 29.8625 14.65C29.9542 14.9 30 15.15 30 15.4C30 15.6667 29.9542 15.9208 29.8625 16.1625C29.7708 16.4042 29.625 16.625 29.425 16.825L18.8358 27.4142C18.4607 27.7893 17.952 28 17.4216 28H14ZM24.8 17.2C25.1866 17.5866 25.8134 17.5866 26.2 17.2L27.3 16.1C27.6866 15.7134 27.6866 15.0866 27.3 14.7C26.9134 14.3134 26.2866 14.3134 25.9 14.7L24.8 15.8C24.4134 16.1866 24.4134 16.8134 24.8 17.2Z" fill="#184159"/>
<defs>
<filter id="filter0_d_65_1793" x="0" y="0" width="43" height="43" filterUnits="userSpaceOnUse" color-interpolation-filters="sRGB">
<feFlood flood-opacity="0" result="BackgroundImageFix"/>
<feColorMatrix in="SourceAlpha" type="matrix" values="0 0 0 0 0 0 0 0 0 0 0 0 0 0 0 0 0 0 127 0" result="hardAlpha"/>
<feOffset dy="1"/>
<feGaussianBlur stdDeviation="1.5"/>
<feComposite in2="hardAlpha" operator="out"/>
<feColorMatrix type="matrix" values="0 0 0 0 0 0 0 0 0 0 0 0 0 0 0 0 0 0 0.25 0"/>
<feBlend mode="normal" in2="BackgroundImageFix" result="effect1_dropShadow_65_1793"/>
<feBlend mode="normal" in="SourceGraphic" in2="effect1_dropShadow_65_1793" result="shape"/>
</filter>
</defs>
</svg>
