<svg width="33" height="42" viewBox="0 0 33 42" fill="none" xmlns="http://www.w3.org/2000/svg">
<g filter="url(#filter0_d_65_1695)">
<path d="M29.3337 34.2665H3.979C3.99271 32.0239 4.88208 29.8771 6.45414 28.292C6.97654 27.7646 7.56474 27.308 8.20393 26.9337C9.44665 26.2086 11.3357 25.8235 12.4306 25.7368C13.333 25.6656 16.0505 25.7368 16.0505 25.7368C14.7759 25.6494 13.5378 25.2697 12.4306 24.6265C11.1387 23.8707 10.0665 22.7855 9.32118 21.4797C8.58626 20.1887 8.20094 18.7253 8.20393 17.2365V17.2139C8.2049 15.7156 8.5993 14.2443 9.34696 12.9499C10.089 11.6594 11.1519 10.5866 12.4306 9.83776L12.4993 9.79786C13.78 9.0701 15.2262 8.6911 16.696 8.69809C18.1657 8.70509 19.6083 9.09784 20.8821 9.83776C22.1597 10.5842 23.2225 11.6539 23.9657 12.9412C24.5309 13.9199 24.8962 15.0028 25.04 16.1262C25.0848 16.4836 25.1077 16.8433 25.1088 17.2035V17.2261C25.1118 18.7149 24.7264 20.1783 23.9915 21.4693C23.2481 22.7793 22.1756 23.8683 20.8821 24.6265C19.7756 25.2727 18.5375 25.6554 17.2622 25.7454C17.2622 25.7454 19.9815 25.6726 20.8821 25.7454C21.977 25.8339 23.866 26.2329 25.1088 26.9598C26.367 27.6952 27.4178 28.7432 28.1614 30.0042C28.9193 31.2952 29.3238 32.7661 29.3337 34.2665Z" fill="white"/>
<path d="M29.3354 8.67558H20.8821V0.166626C23.1203 0.16616 25.2673 1.06177 26.8521 2.65696C28.4368 4.25215 29.3299 6.41665 29.3354 8.67558Z" fill="white"/>
</g>
<defs>
<filter id="filter0_d_65_1695" x="0.481568" y="0.166626" width="32.3513" height="41.0948" filterUnits="userSpaceOnUse" color-interpolation-filters="sRGB">
<feFlood flood-opacity="0" result="BackgroundImageFix"/>
<feColorMatrix in="SourceAlpha" type="matrix" values="0 0 0 0 0 0 0 0 0 0 0 0 0 0 0 0 0 0 127 0" result="hardAlpha"/>
<feOffset dy="3.49744"/>
<feGaussianBlur stdDeviation="1.74872"/>
<feComposite in2="hardAlpha" operator="out"/>
<feColorMatrix type="matrix" values="0 0 0 0 0 0 0 0 0 0 0 0 0 0 0 0 0 0 0.25 0"/>
<feBlend mode="normal" in2="BackgroundImageFix" result="effect1_dropShadow_65_1695"/>
<feBlend mode="normal" in="SourceGraphic" in2="effect1_dropShadow_65_1695" result="shape"/>
</filter>
</defs>
</svg>
