<svg width="58" height="38" viewBox="0 0 58 38" fill="none" xmlns="http://www.w3.org/2000/svg">
<g filter="url(#filter0_d_65_1646)">
<rect x="4" width="50" height="30" rx="15" fill="#D2E898"/>
</g>
<mask id="mask0_65_1646" style="mask-type:alpha" maskUnits="userSpaceOnUse" x="17" y="3" width="25" height="25">
<rect x="17.353" y="3.30255" width="24" height="24" fill="#D9D9D9"/>
</mask>
<g mask="url(#mask0_65_1646)">
<path d="M26.053 19.1026C26.4396 19.4892 27.0664 19.4892 27.453 19.1026L29.353 17.2026L31.253 19.1026C31.6396 19.4892 32.2664 19.4892 32.653 19.1026C33.0396 18.716 33.0396 18.0892 32.653 17.7026L30.753 15.8026L32.653 13.9026C33.0396 13.516 33.0396 12.8892 32.653 12.5026C32.2664 12.116 31.6396 12.116 31.253 12.5026L29.353 14.4026L27.453 12.5026C27.0664 12.116 26.4396 12.116 26.053 12.5026C25.6664 12.8892 25.6664 13.516 26.053 13.9026L27.953 15.8026L26.053 17.7026C25.6664 18.0892 25.6664 18.716 26.053 19.1026ZM25.353 24.3026C24.803 24.3026 24.3322 24.1067 23.9405 23.7151C23.5489 23.3234 23.353 22.8526 23.353 22.3026V9.30255H22.353C21.8007 9.30255 21.353 8.85484 21.353 8.30255C21.353 7.75027 21.8007 7.30255 22.353 7.30255H26.353C26.353 6.19798 27.2485 5.30255 28.353 5.30255H30.353C31.4576 5.30255 32.353 6.19798 32.353 7.30255H36.353C36.9053 7.30255 37.353 7.75027 37.353 8.30255C37.353 8.85484 36.9053 9.30255 36.353 9.30255H35.353V22.3026C35.353 22.8526 35.1572 23.3234 34.7655 23.7151C34.3739 24.1067 33.903 24.3026 33.353 24.3026H25.353Z" fill="#184159"/>
</g>
<defs>
<filter id="filter0_d_65_1646" x="0" y="0" width="58" height="38" filterUnits="userSpaceOnUse" color-interpolation-filters="sRGB">
<feFlood flood-opacity="0" result="BackgroundImageFix"/>
<feColorMatrix in="SourceAlpha" type="matrix" values="0 0 0 0 0 0 0 0 0 0 0 0 0 0 0 0 0 0 127 0" result="hardAlpha"/>
<feOffset dy="4"/>
<feGaussianBlur stdDeviation="2"/>
<feComposite in2="hardAlpha" operator="out"/>
<feColorMatrix type="matrix" values="0 0 0 0 0 0 0 0 0 0 0 0 0 0 0 0 0 0 0.4 0"/>
<feBlend mode="normal" in2="BackgroundImageFix" result="effect1_dropShadow_65_1646"/>
<feBlend mode="normal" in="SourceGraphic" in2="effect1_dropShadow_65_1646" result="shape"/>
</filter>
</defs>
</svg>
