<svg width="17" height="20" viewBox="0 0 17 20" fill="none" xmlns="http://www.w3.org/2000/svg">
<path d="M5.05303 14.1026C5.43963 14.4892 6.06643 14.4892 6.45303 14.1026L8.35303 12.2026L10.253 14.1026C10.6396 14.4892 11.2664 14.4892 11.653 14.1026C12.0396 13.716 12.0396 13.0892 11.653 12.7026L9.75303 10.8026L11.653 8.90255C12.0396 8.51595 12.0396 7.88915 11.653 7.50255C11.2664 7.11595 10.6396 7.11595 10.253 7.50255L8.35303 9.40255L6.45303 7.50255C6.06643 7.11595 5.43963 7.11595 5.05303 7.50255C4.66643 7.88915 4.66643 8.51595 5.05303 8.90255L6.95303 10.8026L5.05303 12.7026C4.66643 13.0892 4.66643 13.716 5.05303 14.1026ZM4.35303 19.3026C3.80303 19.3026 3.33219 19.1067 2.94053 18.7151C2.54886 18.3234 2.35303 17.8526 2.35303 17.3026V4.30255H1.35303C0.800743 4.30255 0.353027 3.85484 0.353027 3.30255C0.353027 2.75027 0.800743 2.30255 1.35303 2.30255H5.35303C5.35303 1.19798 6.24846 0.302551 7.35303 0.302551H9.35303C10.4576 0.302551 11.353 1.19798 11.353 2.30255H15.353C15.9053 2.30255 16.353 2.75027 16.353 3.30255C16.353 3.85484 15.9053 4.30255 15.353 4.30255H14.353V17.3026C14.353 17.8526 14.1572 18.3234 13.7655 18.7151C13.3739 19.1067 12.903 19.3026 12.353 19.3026H4.35303Z" fill="#184159"/>
</svg>
