<svg width="22" height="15" viewBox="0 0 22 15" fill="none" xmlns="http://www.w3.org/2000/svg">
<path d="M11 11.6666C12.1458 11.6666 13.1198 11.2656 13.9218 10.4635C14.7239 9.66142 15.125 8.68746 15.125 7.54163C15.125 6.39579 14.7239 5.42183 13.9218 4.61975C13.1198 3.81767 12.1458 3.41663 11 3.41663C9.85413 3.41663 8.88017 3.81767 8.07808 4.61975C7.276 5.42183 6.87496 6.39579 6.87496 7.54163C6.87496 8.68746 7.276 9.66142 8.07808 10.4635C8.88017 11.2656 9.85413 11.6666 11 11.6666ZM11 10.0166C10.3125 10.0166 9.72808 9.776 9.24683 9.29475C8.76558 8.8135 8.52496 8.22913 8.52496 7.54163C8.52496 6.85413 8.76558 6.26975 9.24683 5.7885C9.72808 5.30725 10.3125 5.06663 11 5.06663C11.6875 5.06663 12.2718 5.30725 12.7531 5.7885C13.2343 6.26975 13.475 6.85413 13.475 7.54163C13.475 8.22913 13.2343 8.8135 12.7531 9.29475C12.2718 9.776 11.6875 10.0166 11 10.0166ZM11 14.4166C8.7694 14.4166 6.73746 13.7941 4.90413 12.5489C3.07079 11.3038 1.74163 9.63468 0.916626 7.54163C1.74163 5.44857 3.07079 3.77947 4.90413 2.53433C6.73746 1.2892 8.7694 0.666626 11 0.666626C13.2305 0.666626 15.2625 1.2892 17.0958 2.53433C18.9291 3.77947 20.2583 5.44857 21.0833 7.54163C20.2583 9.63468 18.9291 11.3038 17.0958 12.5489C15.2625 13.7941 13.2305 14.4166 11 14.4166Z" fill="#FFFFFF"/>
</svg>
